<?xml version="1.0" encoding="UTF-8"?>
<svg width="1255px" height="1169px" viewBox="0 0 1255 1169" version="1.1" xmlns="http://www.w3.org/2000/svg" xmlns:xlink="http://www.w3.org/1999/xlink">
    <title>technocracy-symbol</title>
    <g id="Page-1" stroke="none" stroke-width="1" fill="none" fill-rule="evenodd">
        <g id="technocracy-symbol" transform="translate(1.200838, 0.602539)" stroke="#979797">
            <path d="M623.799162,249.397461 C833.667367,249.397461 1003.79916,419.529256 1003.79916,629.397461 C1003.79916,839.265666 833.667367,1009.39746 623.799162,1009.39746 C413.930957,1009.39746 243.799162,839.265666 243.799162,629.397461 C243.799162,604.242161 246.243443,579.657754 250.907457,555.868789 C285.154853,381.188738 439.086256,249.397461 623.799162,249.397461 Z M624.299162,329.397461 C481.133662,329.397461 361.429828,429.848794 331.82397,564.115151 C327.224075,584.976264 324.799162,606.653678 324.799162,628.897461 C324.799162,794.306744 458.889879,928.397461 624.299162,928.397461 C789.708444,928.397461 923.799162,794.306744 923.799162,628.897461 C923.799162,463.488178 789.708444,329.397461 624.299162,329.397461 Z" id="Combined-Shape" fill="#6E5BF9"></path>
            <path d="M446.032343,18.1587894 C379.595639,92.8608725 347.351245,162.403971 349.299162,226.788086 C349.332282,227.882802 349.198325,260.751708 349.299162,261.844727 C352.791349,299.698242 368.445656,386.324164 442.871427,454.051758 C463.961536,473.243797 513.201119,494.766583 590.590177,518.620117 C592.321948,521.540145 592.321948,528.479976 590.590177,539.439612 C588.858406,550.399247 588.182832,556.724094 588.563454,558.414152 C571.426694,563.563949 559.46834,574.320488 552.688392,590.683769 C545.908444,607.04705 543.13417,621.545364 544.365568,634.178711 C542.733969,634.043065 537.54968,637.49933 528.812701,644.547507 C520.075722,651.595684 513.736573,654.766372 509.795255,654.05957 C434.675464,569.235352 349.21713,533.166992 253.420255,545.854492 C157.62338,558.541992 85.0897323,634.961984 35.8193111,775.114469 C32.3184188,783.355772 25.1516666,787.476424 14.3190545,787.476424 C3.48644237,787.476424 -1.19987608,783.355772 0.260099149,775.114469 C-1.01464043,682.74063 28.7405679,597.242513 89.5257241,518.620117 C150.31088,439.997721 204.942391,402.887695 253.420255,407.290039 C246.80598,343.122262 245.215485,297.404163 248.648771,270.135742 C253.343639,232.84737 269.159599,200.077547 280.828459,170.397461 C305.297209,108.160482 352.997078,52.8186849 423.928068,4.37207031 C431.303068,-1.45735677 437.617521,-1.45735677 442.871427,4.37207031 C448.125334,10.2014974 449.178972,14.7970704 446.032343,18.1587894 Z" id="Path" fill="#000000"></path>
            <path d="M1228.73979,794.788878 C1200.87637,699.820561 1159.54236,635.951374 1104.73776,603.181317 L1102.91669,602.103196 L1102.91669,602.103196 L1079.29707,587.295859 L1079.29707,587.295859 L1074.38829,584.24584 L1074.38829,584.24584 L1073.58613,583.759463 L1073.58613,583.759463 L1073.34317,583.620615 L1073.34317,583.620615 C1039.39099,566.522851 957.632526,533.893712 860.75662,561.120188 C835.226421,568.29532 795.085004,595.049193 740.332368,641.381808 L736.779667,644.398174 C733.80219,646.934448 730.782479,649.527316 727.720534,652.176776 C726.231928,652.142234 724.26408,651.415404 721.816991,649.996284 L721.220488,649.642404 C720.917636,649.458817 720.607883,649.265262 720.291228,649.061738 L719.648718,648.641397 C719.5401,648.569125 719.430714,648.495745 719.320562,648.421258 L718.650448,647.961042 L718.650448,647.961042 L717.961931,647.474241 L717.961931,647.474241 L717.255011,646.960857 C717.135657,646.873078 717.015537,646.784191 716.89465,646.694196 L716.160125,646.140936 C716.036171,646.046511 715.91145,645.950978 715.785962,645.854337 L715.023834,645.261202 L715.023834,645.261202 L714.243302,644.641482 L714.243302,644.641482 L713.444368,643.995178 C713.309678,643.885245 713.174222,643.774205 713.037999,643.662057 L712.211461,642.975878 L712.211461,642.975878 L711.366519,642.263114 L711.366519,642.263114 L710.064601,641.144124 L710.064601,641.144124 L708.040677,639.394866 L708.040677,639.394866 L706.157204,637.785265 L706.157204,637.785265 L704.414182,636.315321 L704.414182,636.315321 L703.120889,635.239919 L703.120889,635.239919 L701.917484,634.253897 L701.917484,634.253897 L700.803969,633.357256 L700.803969,633.357256 L699.780342,632.549995 L699.780342,632.549995 L699.302236,632.179882 L699.302236,632.179882 L698.627214,631.66661 L698.627214,631.66661 L698.002753,631.203615 L698.002753,631.203615 L697.614537,630.922883 L697.614537,630.922883 L697.074347,630.543682 L697.074347,630.543682 L696.742311,630.318812 L696.742311,630.318812 L696.286392,630.023406 L696.286392,630.023406 L696.010536,629.854399 L696.010536,629.854399 L695.757153,629.707738 L695.757153,629.707738 L695.526241,629.583421 C695.489629,629.564564 695.453952,629.546638 695.419213,629.529643 L695.222009,629.438844 C695.16002,629.412302 695.101777,629.389484 695.047278,629.370391 C699.761102,612.108618 696.976002,596.267262 686.691977,581.846322 C676.407953,567.425382 665.582827,557.389727 654.2166,551.739359 C654.358807,551.548937 654.476498,551.254921 654.569672,550.85731 L654.628156,550.576888 L654.628156,550.576888 L654.679376,550.265772 C654.687307,550.211362 654.694936,550.155672 654.702262,550.098704 L654.742586,549.741545 C654.748701,549.679461 654.754514,549.616098 654.760024,549.551456 L654.789451,549.148255 L654.789451,549.148255 L654.811614,548.71436 L654.811614,548.71436 L654.826514,548.24977 L654.826514,548.24977 L654.834149,547.754485 L654.834149,547.754485 L654.83452,547.228506 L654.83452,547.228506 L654.827626,546.671832 L654.827626,546.671832 L654.813469,546.084463 L654.813469,546.084463 L654.792047,545.466399 L654.792047,545.466399 L654.746295,544.481751 L654.746295,544.481751 L654.684198,543.42804 L654.684198,543.42804 L654.605756,542.305265 L654.605756,542.305265 L654.544382,541.518381 L654.544382,541.518381 L654.4387,540.280501 L654.4387,540.280501 L654.359165,539.416879 L654.359165,539.416879 L654.226243,538.063894 L654.226243,538.063894 L654.023588,536.152483 L654.023588,536.152483 L653.852529,534.63835 L653.852529,534.63835 L653.665126,533.055154 C653.618667,532.670867 653.574608,532.29144 653.532947,531.916875 L653.415163,530.807762 C653.378301,530.442919 653.343838,530.082937 653.311774,529.727816 L653.222779,528.677037 C653.209146,528.504338 653.196113,528.332854 653.18368,528.162586 L653.116277,527.155557 C653.106242,526.99015 653.096808,526.825958 653.087973,526.662981 L653.042162,525.699703 C652.758995,518.742609 653.636991,514.138315 655.676149,511.886821 C767.418591,493.131612 843.292312,439.772153 883.297311,351.808445 C923.302311,263.844737 896.931459,161.836289 804.184757,45.7831008 C799.050925,38.4469502 799.354215,30.1855868 805.094624,20.9990107 L805.304745,20.6662163 L805.304745,20.6662163 L805.725623,20.0204263 C811.272758,11.6913138 817.040307,10.226898 823.028269,15.6271788 C902.041235,63.4968148 958.779893,134.037762 993.244241,227.25002 C1027.70859,320.462278 1030.22939,386.457744 1000.80663,425.236418 L1004.26001,426.93347 L1004.26001,426.93347 L1007.66944,428.617282 L1007.66944,428.617282 L1011.03493,430.287854 L1011.03493,430.287854 L1014.35648,431.945187 L1014.35648,431.945187 L1017.6341,433.589281 L1017.6341,433.589281 L1022.46813,436.030597 L1022.46813,436.030597 L1025.63589,437.641592 L1025.63589,437.641592 L1028.75971,439.239348 L1028.75971,439.239348 L1031.8396,440.823864 L1031.8396,440.823864 L1036.37703,443.175814 L1036.37703,443.175814 L1039.34706,444.727232 C1039.83841,444.984698 1040.32792,445.241613 1040.8156,445.497976 L1043.71972,447.029534 L1043.71972,447.029534 L1046.5799,448.547853 L1046.5799,448.547853 L1049.39614,450.052932 L1049.39614,450.052932 L1052.16844,451.544772 C1052.62683,451.792309 1053.08339,452.039294 1053.53812,452.285728 L1056.24451,453.757709 C1056.69191,454.001935 1057.13748,454.245611 1057.58122,454.488734 L1060.2217,455.940856 L1060.2217,455.940856 L1062.81824,457.379738 L1062.81824,457.379738 L1065.37084,458.805381 L1065.37084,458.805381 L1067.8795,460.217785 L1067.8795,460.217785 L1070.34422,461.616949 L1070.34422,461.616949 L1072.765,463.002873 L1072.765,463.002873 L1075.14184,464.375558 C1075.53432,464.603236 1075.92496,464.830362 1076.31378,465.056936 L1078.62471,466.409762 L1078.62471,466.409762 L1080.8917,467.749349 L1080.8917,467.749349 L1083.11475,469.075696 C1083.84844,469.515605 1084.57481,469.953307 1085.29385,470.388803 L1087.42902,471.688671 C1087.78122,471.904213 1088.13159,472.119203 1088.48013,472.333641 L1090.54939,473.61365 C1090.8906,473.825881 1091.22998,474.037561 1091.56754,474.24869 L1093.57088,475.508839 C1094.23134,475.926683 1094.88448,476.34232 1095.53029,476.75575 L1097.44576,477.989421 C1098.07692,478.398438 1098.70077,478.805249 1099.31728,479.209853 L1101.14487,480.417045 C1101.74674,480.817235 1102.34129,481.21522 1102.92852,481.610997 L1104.66822,482.791711 C1104.95451,482.987393 1105.23897,483.182524 1105.5216,483.377102 L1107.19539,484.537957 L1107.19539,484.537957 L1108.82525,485.685571 L1108.82525,485.685571 L1110.41117,486.819947 L1110.41117,486.819947 L1111.95314,487.941082 C1113.21981,488.869846 1114.44071,489.784818 1115.61584,490.685999 L1117.00403,491.760797 C1117.91483,492.472916 1118.79635,493.176208 1119.64857,493.870674 C1135.115,506.474081 1147.8407,521.060563 1159.21739,535.806268 L1160.79622,537.864658 C1161.05794,538.207834 1161.31898,538.55105 1161.57933,538.894284 L1163.13347,540.953709 L1163.13347,540.953709 L1164.6722,543.012449 L1164.6722,543.012449 L1166.19636,545.069401 C1166.44922,545.412016 1166.70151,545.754511 1166.95324,546.096863 L1168.45713,548.14907 L1168.45713,548.14907 L1169.94854,550.196737 L1169.94854,550.196737 L1172.16412,553.257317 L1172.16412,553.257317 L1176.52814,559.325535 L1176.52814,559.325535 L1180.1099,564.310799 L1180.1099,564.310799 L1182.24088,567.263012 L1182.24088,567.263012 L1184.36176,570.181474 C1184.59695,570.503735 1184.83202,570.825302 1185.06696,571.146153 L1186.47538,573.06247 C1186.70993,573.380361 1186.94439,573.69749 1187.1788,574.013834 C1226.99229,627.745085 1248.64771,697.523553 1252.14507,783.349238 C1253.18055,792.692718 1249.8344,798.047678 1242.10662,799.414118 C1234.37884,800.780557 1229.92323,799.238811 1228.73979,794.788878 Z" id="Path" fill="#000000"></path>
            <path d="M189.162699,1097.2121 C286.09583,1117.19509 361.894118,1110.68409 416.557562,1077.67911 L418.364425,1076.57735 L418.364425,1076.57735 L445.155364,1061.15357 L445.155364,1061.15357 L447.342097,1059.87922 L447.342097,1059.87922 L448.232711,1059.35131 L448.232711,1059.35131 L448.532381,1059.16622 L448.532381,1059.16622 L448.567502,1059.14253 C479.603514,1037.19145 546.79661,980.321458 568.237541,882.003052 C573.705706,856.928522 569.408308,811.16373 555.345347,744.708674 L554.393348,740.247685 C553.104727,734.258829 551.738946,728.106495 550.296005,721.790683 C551.025362,720.492537 552.590963,719.096257 554.992811,717.601842 L555.58531,717.241298 C555.788162,717.120489 555.996365,716.999051 556.209921,716.876986 L556.866644,716.508905 L556.866644,716.508905 L557.555478,716.137056 C557.67296,716.074768 557.79178,716.012322 557.911938,715.949719 L558.64894,715.572217 L558.64894,715.572217 L559.418054,715.190947 C559.548916,715.127088 559.681116,715.063072 559.814653,714.998899 L560.631935,714.611977 L560.631935,714.611977 L561.481329,714.221286 L561.481329,714.221286 L562.362835,713.826827 L562.362835,713.826827 L563.276452,713.428599 L563.276452,713.428599 L564.222181,713.026603 L564.222181,713.026603 L565.200022,712.620839 L565.200022,712.620839 L566.209975,712.211306 L566.209975,712.211306 L567.785114,711.589941 L567.785114,711.589941 L570.820895,710.415143 L570.820895,710.415143 L573.564702,709.333341 L573.564702,709.333341 L574.834412,708.824001 L574.834412,708.824001 L576.421379,708.177611 L576.421379,708.177611 L578.234766,707.422224 L578.234766,707.422224 L579.231959,706.997046 L579.231959,706.997046 L580.74255,706.335172 L580.74255,706.335172 L581.558065,705.966102 L581.558065,705.966102 L582.305452,705.618073 L582.305452,705.618073 L582.984709,705.291084 L582.984709,705.291084 L583.595837,704.985135 L583.595837,704.985135 L584.138836,704.700227 L584.138836,704.700227 L584.613706,704.43636 L584.613706,704.43636 L584.892436,704.272137 L584.892436,704.272137 L585.140887,704.117266 L585.140887,704.117266 L585.359058,703.971747 L585.359058,703.971747 L585.54695,703.835578 C585.575742,703.813663 585.603272,703.792137 585.62954,703.771001 L585.772013,703.648859 L585.772013,703.648859 C598.800247,715.91483 614.09486,720.892799 631.655851,718.582765 C649.216842,716.272732 663.159888,711.426167 673.484988,704.043072 C673.575094,704.234147 673.746567,704.446545 673.999405,704.680268 L674.20429,704.859558 C674.24098,704.890106 674.278941,704.920987 674.318174,704.952201 L674.568827,705.143486 C674.613145,705.176033 674.658735,705.208914 674.705596,705.242127 L675.002017,705.445406 C675.053963,705.479953 675.107181,705.514832 675.161669,705.550045 L675.503859,705.765319 L675.503859,705.765319 L675.876561,705.988589 L675.876561,705.988589 L676.279774,706.219856 L676.279774,706.219856 L676.7135,706.45912 L676.7135,706.45912 L677.177738,706.70638 L677.177738,706.70638 L677.672489,706.961636 L677.672489,706.961636 L678.471824,707.359514 L678.471824,707.359514 L679.339813,707.775383 L679.339813,707.775383 L680.276453,708.209245 L680.276453,708.209245 L681.281746,708.661099 L681.281746,708.661099 L682.728929,709.291558 L682.728929,709.291558 L683.894411,709.785393 L683.894411,709.785393 L685.128545,710.297221 L685.128545,710.297221 L686.431331,710.82704 L686.431331,710.82704 L687.337996,711.190248 L687.337996,711.190248 L688.755203,711.750054 L688.755203,711.750054 L690.241062,712.327852 C690.602179,712.467243 690.957878,712.606471 691.308158,712.745535 L692.342742,713.162235 L692.342742,713.162235 L693.344816,713.577951 L693.344816,713.577951 L694.314379,713.992684 L694.314379,713.992684 L695.251432,714.406434 C695.404898,714.47531 695.557009,714.544146 695.707766,714.61294 L696.596053,715.025214 C696.741391,715.093845 696.885375,715.162434 697.028004,715.230983 L697.867525,715.641783 C698.141946,715.778552 698.41095,715.915157 698.674534,716.051599 L699.449033,716.460431 C700.460024,717.004886 701.38432,717.546719 702.221921,718.085929 L702.833866,718.489844 C705.613752,720.372491 707.331621,722.223013 707.987473,724.041411 C672.087441,831.509168 683.580492,923.552436 742.466627,1000.17121 C801.352762,1076.78999 903.80124,1101.39598 1049.81206,1073.98917 C1058.69969,1072.90038 1065.85165,1077.04664 1071.26796,1086.42796 C1071.66427,1087.1144 1072.02503,1087.78337 1072.35022,1088.43487 L1072.66357,1089.08055 C1076.38194,1096.97214 1074.69131,1102.20674 1067.59167,1104.78435 C988.230948,1152.07523 899.309802,1169.05552 800.828232,1155.72523 C702.346662,1142.39494 642.892681,1113.63767 622.46629,1069.45344 L619.346622,1071.70587 L619.346622,1071.70587 L616.259273,1073.92572 L616.259273,1073.92572 L613.204241,1076.11299 L613.204241,1076.11299 L610.181528,1078.26767 L610.181528,1078.26767 L607.191134,1080.38978 L607.191134,1080.38978 L604.233058,1082.4793 L604.233058,1082.4793 L601.3073,1084.53624 L601.3073,1084.53624 L598.413861,1086.56061 L598.413861,1086.56061 L595.55274,1088.55239 C595.07858,1088.88163 594.605766,1089.20952 594.134299,1089.53606 L589.927454,1092.4382 L589.927454,1092.4382 L587.163288,1094.33224 C586.705287,1094.64519 586.248632,1094.95679 585.793325,1095.26704 L583.077636,1097.1122 L583.077636,1097.1122 L580.394267,1098.92478 L580.394267,1098.92478 L577.743216,1100.70478 L577.743216,1100.70478 L575.124483,1102.4522 L575.124483,1102.4522 L572.538068,1104.16704 L572.538068,1104.16704 L569.983972,1105.8493 C569.560983,1106.12696 569.13934,1106.40326 568.719044,1106.67821 L566.213425,1108.31159 L566.213425,1108.31159 L563.740125,1109.9124 L563.740125,1109.9124 L561.299143,1111.48062 L561.299143,1111.48062 L558.89048,1113.01626 L558.89048,1113.01626 L556.514135,1114.51932 L556.514135,1114.51932 L554.170109,1115.9898 L554.170109,1115.9898 L551.858401,1117.42769 L551.858401,1117.42769 L549.579011,1118.83301 L549.579011,1118.83301 L547.33194,1120.20574 L547.33194,1120.20574 L545.117187,1121.5459 L545.117187,1121.5459 L542.934752,1122.85347 C542.573707,1123.06868 542.214007,1123.28254 541.855655,1123.49504 L539.721698,1124.75374 L539.721698,1124.75374 L537.620059,1125.97985 C536.9249,1126.38313 536.235126,1126.78098 535.550739,1127.17339 L533.513738,1128.33435 C532.840123,1128.7159 532.171896,1129.09203 531.509054,1129.46272 L529.536689,1130.55851 C529.210655,1130.73843 528.885967,1130.91699 528.562626,1131.09419 L526.638739,1132.14111 L526.638739,1132.14111 L524.74717,1133.15545 C523.184329,1133.98716 521.655152,1134.78493 520.159641,1135.54876 L518.381187,1136.44906 L518.381187,1136.44906 L516.635051,1137.31678 C516.346721,1137.45869 516.059738,1137.59924 515.774102,1137.73843 L514.076443,1138.55728 C512.955444,1139.09232 511.85599,1139.60564 510.778082,1140.09724 L509.177378,1140.81834 C508.121016,1141.28822 507.086199,1141.73638 506.072927,1142.16281 C490.179229,1148.85169 473.938728,1153.0374 457.96929,1156.06615 L455.514676,1156.52316 C454.697239,1156.67258 453.880599,1156.81913 453.064838,1156.96301 L450.620278,1157.38678 L450.620278,1157.38678 L448.181494,1157.79556 L448.181494,1157.79556 L445.748988,1158.19045 C445.344121,1158.25516 444.939536,1158.31934 444.535245,1158.38302 L442.113091,1158.7591 L442.113091,1158.7591 L439.698464,1159.124 L439.698464,1159.124 L437.291864,1159.47882 L437.291864,1159.47882 L434.893792,1159.82464 L434.893792,1159.82464 L432.504745,1160.16255 L432.504745,1160.16255 L427.755733,1160.81901 L427.755733,1160.81901 L414.925094,1162.55481 L414.925094,1162.55481 L411.492031,1163.02768 L411.492031,1163.02768 L409.220751,1163.34643 L409.220751,1163.34643 L406.963998,1163.66926 L406.963998,1163.66926 L404.722271,1163.99725 C404.349929,1164.05241 403.978235,1164.10783 403.607198,1164.16353 C337.474018,1174.09146 265.696681,1160.45306 188.275187,1123.24833 C179.539256,1119.7761 176.382029,1114.30763 178.803508,1106.8429 C181.224987,1099.37817 184.67805,1096.1679 189.162699,1097.2121 Z" id="Path" fill="#000000"></path>
        </g>
    </g>
</svg>