<?xml version="1.0" encoding="UTF-8"?>
<svg width="759px" height="255px" viewBox="0 0 759 255" version="1.1" xmlns="http://www.w3.org/2000/svg" xmlns:xlink="http://www.w3.org/1999/xlink">
    <title>three-monkeys</title>
    <defs>
        <rect id="path-1" x="-1.42108547e-14" y="0" width="250" height="250"></rect>
        <rect id="path-3" x="-1.13686838e-13" y="5.68434189e-14" width="250" height="250"></rect>
        <polygon id="path-5" points="-4.61852778e-14 6.03961325e-14 60.1 6.03961325e-14 60.1 46.98 -4.61852778e-14 46.98"></polygon>
        <rect id="path-7" x="1.42108547e-14" y="0" width="250" height="250"></rect>
        <polygon id="path-9" points="5.68434189e-14 0 60.1 0 60.1 46.98 5.68434189e-14 46.98"></polygon>
        <polygon id="path-11" points="-5.32907052e-15 -5.32907052e-15 26 -5.32907052e-15 26 26 -5.32907052e-15 26"></polygon>
        <polygon id="path-13" points="-5.32907052e-15 2.30926389e-14 26 2.30926389e-14 26 25 -5.32907052e-15 25"></polygon>
        <polygon id="path-15" points="-5.32907052e-15 2.30926389e-14 24 2.30926389e-14 24 24 -5.32907052e-15 24"></polygon>
        <polygon id="path-17" points="-1.77635684e-15 -1.77635684e-15 22 -1.77635684e-15 22 22 -1.77635684e-15 22"></polygon>
        <polygon id="path-19" points="-1.77635684e-15 -1.77635684e-15 16 -1.77635684e-15 16 16 -1.77635684e-15 16"></polygon>
        <polygon id="path-21" points="-8.8817842e-16 -4.4408921e-16 5 -4.4408921e-16 5 5 -8.8817842e-16 5"></polygon>
        <polygon id="path-23" points="-3.55271368e-15 -1.77635684e-15 20 -1.77635684e-15 20 20 -3.55271368e-15 20"></polygon>
        <polygon id="path-25" points="-5.32907052e-15 -5.32907052e-15 24 -5.32907052e-15 24 24 -5.32907052e-15 24"></polygon>
        <polygon id="path-27" points="-1.77635684e-15 -8.8817842e-16 9 -8.8817842e-16 9 9 -1.77635684e-15 9"></polygon>
        <polygon id="path-29" points="-5.32907052e-15 -1.77635684e-15 26 -1.77635684e-15 26 26 -5.32907052e-15 26"></polygon>
        <polygon id="path-31" points="-5.32907052e-15 -1.77635684e-15 26 -1.77635684e-15 26 25 -5.32907052e-15 25"></polygon>
        <polygon id="path-33" points="-5.32907052e-15 -1.77635684e-15 24 -1.77635684e-15 24 24 -5.32907052e-15 24"></polygon>
        <polygon id="path-35" points="-5.32907052e-15 -1.77635684e-15 22 -1.77635684e-15 22 22 -5.32907052e-15 22"></polygon>
        <polygon id="path-37" points="-3.55271368e-15 -1.77635684e-15 16 -1.77635684e-15 16 16 -3.55271368e-15 16"></polygon>
        <polygon id="path-39" points="-1.33226763e-15 -4.4408921e-16 5 -4.4408921e-16 5 5 -1.33226763e-15 5"></polygon>
        <polygon id="path-41" points="-5.32907052e-15 -1.77635684e-15 20 -1.77635684e-15 20 20 -5.32907052e-15 20"></polygon>
        <polygon id="path-43" points="-5.32907052e-15 -1.77635684e-15 24 -1.77635684e-15 24 24 -5.32907052e-15 24"></polygon>
    </defs>
    <g id="Page-1" stroke="none" stroke-width="1" fill="none" fill-rule="evenodd">
        <g id="three-monkeys" transform="translate(0.180000, 0.660000)">
            <g id="id1-Clipped" transform="translate(0.917700, 2.002222)">
                <mask id="mask-2" fill="white">
                    <use xlink:href="#path-1"></use>
                </mask>
                <g id="rect4084"></g>
                <g id="id1" mask="url(#mask-2)">
                    <g transform="translate(10.680000, 18.240000)" id="g4133">
                        <g id="id3" transform="translate(9.620000, 49.080000)" fill="#552200">
                            <path d="M59.24,27.1 C66.35,46.88 59.49,67.46 43.91,73.06 C28.33,78.67 9.93,67.17 2.82,47.39 C-4.3,27.61 2.57,7.03 18.15,1.43 C33.73,-4.18 52.12,7.32 59.24,27.1 Z" id="path4138"></path>
                        </g>
                        <g id="id4" transform="translate(21.970000, 66.870000)" fill="#D38D5F">
                            <path d="M36.19,16.55 C40.53,28.64 36.34,41.21 26.82,44.63 C17.3,48.06 6.06,41.03 1.72,28.95 C-2.63,16.86 1.57,4.29 11.08,0.87 C20.6,-2.55 31.84,4.47 36.19,16.55 Z" id="path4143"></path>
                        </g>
                        <g id="id5" transform="translate(157.590000, 49.080000)" fill="#552200">
                            <path d="M2.82,27.1 C-4.3,46.88 2.57,67.46 18.15,73.06 C33.73,78.67 52.12,67.17 59.24,47.39 C66.35,27.61 59.49,7.03 43.91,1.43 C28.33,-4.18 9.93,7.32 2.82,27.1 Z" id="path4148"></path>
                        </g>
                        <g id="id6" transform="translate(169.390000, 66.870000)" fill="#D38D5F">
                            <path d="M1.72,16.55 C-2.63,28.64 1.57,41.21 11.08,44.63 C20.6,48.06 31.84,41.03 36.19,28.95 C40.53,16.86 36.34,4.29 26.82,0.87 C17.3,-2.55 6.06,4.47 1.72,16.55 Z" id="path4153"></path>
                        </g>
                        <g id="id7" transform="translate(49.180000, 18.490000)">
                            <path d="M0.01,40.79 C1.06,93.34 15.42,113.99 33.54,113.99 L97.36,113.99 C115.49,113.99 126.49,115.39 130.12,48.68 C133.75,-18.04 -1.04,-11.76 0.01,40.79 Z" id="path4158" fill="#552200"></path>
                            <path d="M0.01,40.79 C1.06,93.34 15.42,113.99 33.54,113.99 L97.36,113.99 C115.49,113.99 126.49,115.39 130.12,48.68 C133.75,-18.04 -1.04,-11.76 0.01,40.79 Z" id="path4160" stroke="#552200" stroke-width="9.11"></path>
                        </g>
                        <g id="id8" transform="translate(56.140000, 34.840000)" fill="#D38D5F">
                            <path d="M26.5,0.99 C12.48,4.75 1.42108547e-14,15.73 1.42108547e-14,33.9 C1.42108547e-14,52.07 8.33,79.59 26.5,79.59 L90.47,79.59 C108.64,79.59 116.98,52.07 116.98,33.9 C116.98,15.73 107.59,5.58 90.47,0.99 C73.35,-3.6 62.03,9.26 58.49,9.38 C54.94,9.5 40.52,-2.76 26.5,0.99 Z" id="path4165"></path>
                        </g>
                        <g id="id9" transform="translate(114.810000, 61.580000)">
                            <path d="M39.05,19.53 C39.05,30.31 30.31,39.05 19.53,39.05 C8.74,39.05 -1.0658141e-14,30.31 -1.0658141e-14,19.53 C-1.0658141e-14,8.74 8.74,7.10542736e-15 19.53,7.10542736e-15 C30.31,7.10542736e-15 39.05,8.74 39.05,19.53 Z" id="path4170" fill="#FFFFFF"></path>
                            <path d="M39.05,19.53 C39.05,30.31 30.31,39.05 19.53,39.05 C8.74,39.05 -1.0658141e-14,30.31 -1.0658141e-14,19.53 C-1.0658141e-14,8.74 8.74,7.10542736e-15 19.53,7.10542736e-15 C30.31,7.10542736e-15 39.05,8.74 39.05,19.53 Z" id="path4172" stroke="#000000" stroke-width="2.21"></path>
                        </g>
                        <g id="id10" transform="translate(128.220000, 73.330000)" fill="#000000">
                            <path d="M12.24,6.12 C12.24,9.5 9.5,12.24 6.12,12.24 C2.74,12.24 5.32907052e-15,9.5 5.32907052e-15,6.12 C5.32907052e-15,2.74 2.74,3.55271368e-15 6.12,3.55271368e-15 C9.5,3.55271368e-15 12.24,2.74 12.24,6.12 Z" id="path4177"></path>
                        </g>
                        <g id="id11" transform="translate(114.810000, 59.920000)">
                            <path d="M39.05,19.53 C39.05,19.53 21.4,16.47 13.71,16.77 C6.02,17.07 -1.0658141e-14,19.53 -1.0658141e-14,19.53 C-1.0658141e-14,8.74 8.74,-1.77635684e-15 19.53,-1.77635684e-15 C30.31,-1.77635684e-15 39.05,8.74 39.05,19.53 Z" id="path4182" fill="#A05A2C"></path>
                            <path d="M39.05,19.53 C39.05,19.53 21.4,16.47 13.71,16.77 C6.02,17.07 -1.0658141e-14,19.53 -1.0658141e-14,19.53 C-1.0658141e-14,8.74 8.74,-1.77635684e-15 19.53,-1.77635684e-15 C30.31,-1.77635684e-15 39.05,8.74 39.05,19.53 Z" id="path4184" stroke="#000000" stroke-width="2.21"></path>
                        </g>
                        <g id="id12" transform="translate(74.660000, 63.240000)">
                            <path d="M39.05,19.53 C39.05,30.31 30.31,39.05 19.53,39.05 C8.74,39.05 -1.0658141e-14,30.31 -1.0658141e-14,19.53 C-1.0658141e-14,8.74 8.74,7.10542736e-15 19.53,7.10542736e-15 C30.31,7.10542736e-15 39.05,8.74 39.05,19.53 Z" id="path4189" fill="#FFFFFF"></path>
                            <path d="M39.05,19.53 C39.05,30.31 30.31,39.05 19.53,39.05 C8.74,39.05 -1.0658141e-14,30.31 -1.0658141e-14,19.53 C-1.0658141e-14,8.74 8.74,7.10542736e-15 19.53,7.10542736e-15 C30.31,7.10542736e-15 39.05,8.74 39.05,19.53 Z" id="path4191" stroke="#000000" stroke-width="2.21"></path>
                        </g>
                        <g id="id13" transform="translate(88.070000, 74.440000)" fill="#000000">
                            <path d="M12.24,6.12 C12.24,9.5 9.5,12.24 6.12,12.24 C2.74,12.24 5.32907052e-15,9.5 5.32907052e-15,6.12 C5.32907052e-15,2.74 2.74,3.55271368e-15 6.12,3.55271368e-15 C9.5,3.55271368e-15 12.24,2.74 12.24,6.12 Z" id="path4196"></path>
                        </g>
                        <g id="id14" transform="translate(74.660000, 61.030000)">
                            <path d="M39.05,19.53 C39.05,19.53 31.66,15.09 25.54,15.29 C11.74,15.29 -1.0658141e-14,19.53 -1.0658141e-14,19.53 C-1.0658141e-14,8.74 8.74,-1.77635684e-15 19.53,-1.77635684e-15 C30.31,-1.77635684e-15 39.05,8.74 39.05,19.53 Z" id="path4201" fill="#A05A2C"></path>
                            <path d="M39.05,19.53 C39.05,19.53 31.66,15.09 25.54,15.29 C11.74,15.29 -1.0658141e-14,19.53 -1.0658141e-14,19.53 C-1.0658141e-14,8.74 8.74,-1.77635684e-15 19.53,-1.77635684e-15 C30.31,-1.77635684e-15 39.05,8.74 39.05,19.53 Z" id="path4203" stroke="#000000" stroke-width="2.21"></path>
                        </g>
                        <g id="id15" transform="translate(3.620000, 32.940000)" fill="#FF0000">
                            <polygon id="path4208" points="46.76 92.99 45.62 93 44.47 92.97 43.33 92.92 42.19 92.84 41.05 92.73 39.91 92.59 38.78 92.42 37.66 92.23 36.53 92 35.42 91.75 34.31 91.47 33.2 91.16 32.11 90.83 31.02 90.47 29.95 90.08 28.88 89.66 27.82 89.22 26.78 88.75 25.75 88.25 24.72 87.73 23.72 87.18 22.72 86.61 21.74 86.01 20.78 85.39 19.83 84.74 18.9 84.07 17.98 83.38 17.08 82.66 16.2 81.93 15.34 81.17 14.5 80.39 13.67 79.58 12.87 78.76 12.09 77.92 11.33 77.06 10.58 76.17 9.87 75.28 9.17 74.36 8.49 73.42 7.84 72.47 7.22 71.51 6.61 70.52 6.04 69.53 5.48 68.51 4.95 67.49 4.45 66.45 3.97 65.4 3.52 64.34 3.09 63.26 2.69 62.18 2.32 61.09 1.98 59.99 1.66 58.87 1.37 57.76 1.11 56.63 0.87 55.5 0.66 54.36 0.48 53.22 0.33 52.07 0.21 50.92 0.11 49.77 0.05 48.62 0.01 47.46 0 46.31 0.02 45.15 0.07 43.99 0.14 42.84 0.25 41.69 0.38 40.54 0.54 39.4 0.73 38.26 0.95 37.12 1.19 35.99 1.46 34.87 1.76 33.75 2.09 32.64 2.44 31.54 2.83 30.45 3.23 29.37 3.67 28.3 4.13 27.25 4.62 26.2 5.13 25.17 5.66 24.14 6.23 23.14 6.81 22.15 7.43 21.17 8.06 20.21 8.72 19.26 9.4 18.33 10.1 17.42 10.83 16.53 11.58 15.65 12.35 14.8 13.14 13.96 13.95 13.15 14.78 12.35 15.63 11.58 16.5 10.82 17.38 10.09 18.29 9.39 19.21 8.7 20.15 8.04 21.1 7.4 22.07 6.79 23.06 6.2 24.05 5.63 25.07 5.09 26.09 4.58 27.13 4.09 28.18 3.63 29.24 3.2 30.31 2.79 31.39 2.41 32.48 2.05 33.57 1.73 34.68 1.43 35.79 1.16 36.91 0.92 38.03 0.7 39.16 0.52 40.3 0.36 41.43 0.23 42.57 0.13 43.71 0.06 44.86 0.01 46 -7.10542736e-15 46 46.5"></polygon>
                        </g>
                        <g id="id16" transform="translate(35.000000, 30.160000)" fill="#000000">
                            <path d="M8.41,0.01 C7,-0.08 5.52,1.24 5.44,2.65 L0.01,95.05 C-0.07,96.45 1.24,97.94 2.65,98.03 L13.87,98.68 C15.28,98.77 16.77,97.44 16.85,96.04 L22.28,3.63 C22.36,2.23 21.04,0.75 19.63,0.66 L8.41,0.01 Z" id="path4213"></path>
                        </g>
                        <g id="id17" transform="translate(179.450000, 32.950000)" fill="#FF0000">
                            <polygon id="path4218" points="0 93 1.14 92.99 2.28 92.94 3.41 92.87 4.54 92.77 5.68 92.65 6.8 92.49 7.93 92.31 9.04 92.09 10.16 91.85 11.26 91.59 12.36 91.29 13.46 90.97 14.54 90.62 15.62 90.24 16.68 89.84 17.74 89.41 18.78 88.95 19.81 88.47 20.84 87.96 21.84 87.43 22.84 86.87 23.82 86.29 24.79 85.68 25.74 85.05 26.67 84.39 27.59 83.71 28.49 83.01 29.38 82.29 30.24 81.54 31.09 80.78 31.92 79.99 32.73 79.18 33.52 78.35 34.29 77.51 35.04 76.64 35.77 75.75 36.47 74.85 37.15 73.93 37.81 72.99 38.45 72.04 39.06 71.07 39.65 70.09 40.22 69.09 40.76 68.08 41.27 67.05 41.76 66.01 42.23 64.96 42.67 63.9 43.08 62.83 43.47 61.75 43.83 60.66 44.16 59.56 44.47 58.45 44.74 57.33 45 56.21 45.22 55.08 45.42 53.95 45.58 52.81 45.72 51.67 45.84 50.53 45.92 49.38 45.98 48.23 46.01 47.08 46.01 45.93 45.98 44.78 45.92 43.63 45.84 42.48 45.73 41.34 45.59 40.2 45.42 39.06 45.22 37.93 45 36.8 44.75 35.68 44.47 34.56 44.16 33.45 43.83 32.35 43.47 31.26 43.08 30.18 42.67 29.11 42.23 28.05 41.77 27 41.28 25.96 40.76 24.93 40.22 23.92 39.66 22.92 39.07 21.94 38.46 20.97 37.82 20.01 37.16 19.08 36.48 18.16 35.77 17.25 35.05 16.37 34.3 15.5 33.53 14.65 32.74 13.83 31.93 13.02 31.1 12.23 30.25 11.46 29.39 10.72 28.5 9.99 27.6 9.29 26.68 8.61 25.74 7.96 24.79 7.33 23.83 6.72 22.85 6.14 21.85 5.58 20.84 5.04 19.82 4.53 18.79 4.05 17.75 3.6 16.69 3.16 15.63 2.76 14.55 2.38 13.47 2.03 12.37 1.71 11.27 1.42 10.17 1.15 9.05 0.91 7.94 0.7 6.81 0.51 5.69 0.36 4.55 0.23 3.42 0.13 2.29 0.06 1.15 0.01 0.01 7.10542736e-15 0.01 46.5"></polygon>
                        </g>
                        <g id="id18" transform="translate(171.840000, 30.170000)" fill="#000000">
                            <path d="M13.88,0.01 C15.29,-0.08 16.77,1.24 16.85,2.65 L22.28,95.05 C22.36,96.45 21.05,97.94 19.64,98.03 L8.42,98.68 C7.01,98.77 5.52,97.44 5.44,96.04 L0.01,3.63 C-0.07,2.23 1.25,0.75 2.66,0.66 L13.88,0.01 Z" id="path4223"></path>
                        </g>
                        <g id="id19" transform="translate(37.350000, 96.390000)" fill="#D38D5F">
                            <path d="M153.82,56.41 C153.82,56.41 102.55,50.89 76.91,50.89 C51.27,50.89 -1.42108547e-14,56.41 -1.42108547e-14,56.41 C-1.42108547e-14,25.26 34.43,7.10542736e-15 76.91,7.10542736e-15 C119.39,7.10542736e-15 153.82,25.25 153.82,56.41 Z" id="path4228"></path>
                        </g>
                        <g id="id20" transform="translate(77.670000, 93.420000)">
                            <path d="M14.94,25.45 C5.46,23.64 -1.15,16.57 0.17,9.66 C1.49,2.75 10.24,-1.38 19.72,0.43 C29.19,2.24 35.81,9.31 34.49,16.22 C33.17,23.13 24.41,27.26 14.94,25.45 Z" id="path4233" fill="#D38D5F"></path>
                            <path d="M14.94,25.45 C5.46,23.64 -1.15,16.57 0.17,9.66 C1.49,2.75 10.24,-1.38 19.72,0.43 C29.19,2.24 35.81,9.31 34.49,16.22 C33.17,23.13 24.41,27.26 14.94,25.45 Z" id="path4235" stroke="#000000" stroke-width="0.5"></path>
                        </g>
                        <g id="id21" transform="translate(113.150000, 93.420000)">
                            <path d="M19.72,25.45 C29.19,23.64 35.81,16.57 34.49,9.66 C33.17,2.75 24.41,-1.38 14.94,0.43 C5.46,2.24 -1.15,9.31 0.17,16.22 C1.49,23.13 10.24,27.26 19.72,25.45 Z" id="path4240" fill="#D38D5F"></path>
                            <path d="M19.72,25.45 C29.19,23.64 35.81,16.57 34.49,9.66 C33.17,2.75 24.41,-1.38 14.94,0.43 C5.46,2.24 -1.15,9.31 0.17,16.22 C1.49,23.13 10.24,27.26 19.72,25.45 Z" id="path4242" stroke="#000000" stroke-width="0.5"></path>
                        </g>
                        <g id="id22" transform="translate(89.090000, 101.820000)" fill="#28170B">
                            <path d="M6.36,10.83 C2.33,10.06 -0.49,7.06 0.08,4.11 C0.64,1.17 4.36,-0.59 8.4,0.19 C12.43,0.96 15.24,3.97 14.68,6.91 C14.12,9.85 10.39,11.61 6.36,10.83 Z" id="path4247"></path>
                        </g>
                        <g id="id23" transform="translate(121.110000, 101.820000)" fill="#28170B">
                            <path d="M8.4,10.83 C12.43,10.06 15.24,7.06 14.68,4.11 C14.12,1.17 10.39,-0.59 6.36,0.19 C2.33,0.96 -0.49,3.97 0.08,6.91 C0.64,9.85 4.36,11.61 8.4,10.83 Z" id="path4252"></path>
                        </g>
                        <g id="id24" transform="translate(37.350000, 151.600000)" fill="#D38D5F">
                            <path d="M153.82,5.52 C153.82,5.52 102.55,-3.19744231e-14 76.91,-3.19744231e-14 C51.27,-3.19744231e-14 -1.42108547e-14,5.52 -1.42108547e-14,5.52 C-1.42108547e-14,36.67 34.43,61.93 76.91,61.93 C119.39,61.93 153.82,36.68 153.82,5.52 Z" id="path4257"></path>
                        </g>
                        <g id="g4259" transform="translate(190.840000, 16.440000)" fill="#333333">
                            <g id="id25" transform="translate(32.790000, 41.070000)">
                                <path d="M0.83,3.55271368e-15 C0.41,3.55271368e-15 -3.55271368e-15,0.41 -3.55271368e-15,0.83 L-3.55271368e-15,37.17 C-3.55271368e-15,37.59 0.41,38.01 0.83,38.01 L4.17,38.01 C4.59,38.01 5.01,37.59 5.01,37.17 L5.01,0.83 C5.01,0.41 4.59,3.55271368e-15 4.17,3.55271368e-15 L0.83,3.55271368e-15 Z" id="path4264"></path>
                            </g>
                            <g id="id26">
                                <path d="M0.29,2.27 C-0.04,2.53 -0.1,3.11 0.17,3.44 L33.32,44.42 C33.58,44.74 34.16,44.81 34.49,44.54 L37.08,42.44 C37.41,42.18 37.47,41.59 37.21,41.27 L4.06,0.29 C3.8,-0.04 3.21,-0.09 2.89,0.17 L0.29,2.27 Z" id="path4269"></path>
                            </g>
                        </g>
                        <g id="id27" transform="translate(149.980000, 0.440000)" fill="#333333">
                            <path d="M0.05,3.68 C-0.1,4.07 0.14,4.6 0.53,4.74 L42.33,20.34 C42.72,20.48 43.26,20.25 43.41,19.85 L44.57,16.72 C44.72,16.33 44.47,15.79 44.08,15.64 L2.28,0.05 C1.89,-0.1 1.36,0.15 1.21,0.55 L0.05,3.68 Z" id="path4274"></path>
                        </g>
                        <g id="id28" transform="translate(77.600000, 0.000000)" fill="#333333">
                            <path d="M74.0601793,1.45 C74.07,1.03 73.66,0.62 73.24,0.61 L0.88,0.01 C0.46,-2.02789174e-15 0.04,0.41 0.04,0.83 L0.00982489939,4.17 C2.52974725e-14,4.59 0.42,5.01 0.84,5.02 L73.2,5.62 C73.62,5.63 74.03,5.21 74.03,4.79 L74.0601793,1.45 Z" id="path4279"></path>
                        </g>
                        <g id="g4281" transform="translate(0.000000, 16.870000)" fill="#333333">
                            <g id="id29" transform="translate(0.000000, 41.050000)">
                                <path d="M4.18,-7.10542736e-15 C4.6,-7.10542736e-15 5.01,0.41 5.01,0.83 L5.01,37.17 C5.01,37.59 4.6,38.01 4.18,38.01 L0.84,38.01 C0.42,38.01 -3.55271368e-15,37.59 -3.55271368e-15,37.17 L-3.55271368e-15,0.83 C-3.55271368e-15,0.41 0.42,-7.10542736e-15 0.84,-7.10542736e-15 L4.18,-7.10542736e-15 Z" id="path4286"></path>
                            </g>
                            <g id="id30" transform="translate(0.520000, 0.000000)">
                                <path d="M37.09,2.27 C37.42,2.53 37.48,3.11 37.21,3.44 L4.06,44.42 C3.8,44.74 3.22,44.81 2.89,44.54 L0.3,42.44 C-0.03,42.18 -0.09,41.59 0.17,41.27 L33.32,0.29 C33.58,-0.04 34.17,-0.09 34.49,0.17 L37.09,2.27 Z" id="path4291"></path>
                            </g>
                        </g>
                        <g id="id31" transform="translate(33.890000, 0.240000)" fill="#333333">
                            <path d="M46.27,3.68 C46.41,4.06 46.17,4.59 45.79,4.74 L2.29,20.97 C1.9,21.11 1.37,20.87 1.22,20.49 L0.05,17.34 C-0.09,16.96 0.15,16.41 0.54,16.27 L44.04,0.04 C44.42,-0.1 44.95,0.15 45.1,0.53 L46.27,3.68 Z" id="path4296"></path>
                        </g>
                    </g>
                </g>
            </g>
            <g id="g4952" transform="translate(507.007976, 3.608553)">
                <g id="id1-9-Clipped" transform="translate(-0.000000, -0.000000)">
                    <mask id="mask-4" fill="white">
                        <use xlink:href="#path-3"></use>
                    </mask>
                    <g id="rect4650"></g>
                    <g id="id1-9" mask="url(#mask-4)">
                        <g transform="translate(20.000000, 27.480000)" id="g4697">
                            <g id="id3-3" transform="translate(0.000000, 30.600000)" fill="#552200">
                                <path d="M59.25,27.1 C66.36,46.89 59.5,67.47 43.92,73.07 C28.33,78.68 9.93,67.18 2.82,47.4 C-4.3,27.61 2.57,7.03 18.15,1.43 C33.73,-4.18 52.13,7.32 59.25,27.1 Z" id="path4702"></path>
                            </g>
                            <g id="id4-6" transform="translate(12.350000, 48.390000)" fill="#D38D5F">
                                <path d="M36.2,16.55 C40.54,28.64 36.35,41.22 26.83,44.64 C17.3,48.07 6.06,41.04 1.72,28.95 C-2.63,16.86 1.57,4.29 11.08,0.87 C20.61,-2.55 31.85,4.47 36.2,16.55 Z" id="path4707"></path>
                            </g>
                            <g id="id5-0" transform="translate(147.970000, 30.600000)" fill="#552200">
                                <path d="M2.82,27.1 C-4.3,46.89 2.57,67.47 18.15,73.07 C33.73,78.68 52.13,67.18 59.25,47.4 C66.36,27.61 59.5,7.03 43.92,1.43 C28.33,-4.18 9.93,7.32 2.82,27.1 Z" id="path4712"></path>
                            </g>
                            <g id="id6-6" transform="translate(159.770000, 48.390000)" fill="#D38D5F">
                                <path d="M1.72,16.55 C-2.63,28.64 1.57,41.22 11.08,44.64 C20.61,48.07 31.85,41.04 36.2,28.95 C40.54,16.86 36.35,4.29 26.83,0.87 C17.3,-2.55 6.06,4.47 1.72,16.55 Z" id="path4717"></path>
                            </g>
                            <g id="id7-2" transform="translate(39.560000, 0.000000)" fill="#552200">
                                <path d="M0.01,40.79 C1.06,93.35 15.42,114 33.54,114 L97.37,114 C115.5,114 126.5,115.4 130.13,48.69 C133.76,-18.04 -1.04,-11.76 0.01,40.79 Z" id="path4722"></path>
                            </g>
                            <g id="g4724" transform="translate(39.560000, 0.000000)" stroke="#552200" stroke-width="9.11">
                                <g id="id8-6">
                                    <path d="M0.01,40.79 C1.06,93.35 15.42,114 33.54,114 L97.37,114 C115.5,114 126.5,115.4 130.13,48.69 C133.76,-18.04 -1.04,-11.76 0.01,40.79 Z" id="path4727"></path>
                                </g>
                            </g>
                            <g id="id9-1" transform="translate(46.510000, 16.380000)" fill="#D38D5F">
                                <path d="M26.5,0.99 C12.48,4.75 0,15.73 0,33.91 C0,52.08 8.33,79.6 26.5,79.6 L90.48,79.6 C108.65,79.6 116.99,52.08 116.99,33.91 C116.99,15.73 107.6,5.58 90.48,0.99 C73.36,-3.6 62.04,9.26 58.5,9.38 C54.94,9.5 40.52,-2.76 26.5,0.99 Z" id="path4732"></path>
                            </g>
                            <g id="id10-8" transform="translate(105.180000, 43.090000)" fill="#FFFFFF">
                                <path d="M39.06,19.54 C39.06,30.32 30.32,39.06 19.54,39.06 C8.74,39.06 -3.19744231e-14,30.32 -3.19744231e-14,19.54 C-3.19744231e-14,8.74 8.74,2.84217094e-14 19.54,2.84217094e-14 C30.32,2.84217094e-14 39.06,8.74 39.06,19.54 Z" id="path4737"></path>
                            </g>
                            <g id="g4739" transform="translate(105.180000, 43.090000)" stroke="#000000" stroke-width="2.21">
                                <g id="id11-7">
                                    <path d="M39.06,19.54 C39.06,30.32 30.32,39.06 19.54,39.06 C8.74,39.06 -3.19744231e-14,30.32 -3.19744231e-14,19.54 C-3.19744231e-14,8.74 8.74,2.84217094e-14 19.54,2.84217094e-14 C30.32,2.84217094e-14 39.06,8.74 39.06,19.54 Z" id="path4742"></path>
                                </g>
                            </g>
                            <g id="id12-9" transform="translate(118.590000, 54.840000)" fill="#000000">
                                <path d="M12.25,6.12 C12.25,9.51 9.51,12.25 6.13,12.25 C2.74,12.25 -2.28261854e-13,9.51 -2.28261854e-13,6.12 C-2.28261854e-13,2.74 2.74,2.7533531e-14 6.13,2.7533531e-14 C9.51,2.7533531e-14 12.25,2.74 12.25,6.12 Z" id="path4747"></path>
                            </g>
                            <g id="id13-2" transform="translate(105.180000, 41.430000)" fill="#A05A2C">
                                <path d="M39.06,19.54 C39.06,19.54 21.41,16.48 13.71,16.78 C6.02,17.08 -3.19744231e-14,19.54 -3.19744231e-14,19.54 C-3.19744231e-14,8.74 8.74,3.55271368e-14 19.54,3.55271368e-14 C30.32,3.55271368e-14 39.06,8.74 39.06,19.54 Z" id="path4752"></path>
                            </g>
                            <g id="g4754" transform="translate(105.180000, 41.430000)" stroke="#000000" stroke-width="2.21">
                                <g id="id14-0">
                                    <path d="M39.06,19.54 C39.06,19.54 21.41,16.48 13.71,16.78 C6.02,17.08 -3.19744231e-14,19.54 -3.19744231e-14,19.54 C-3.19744231e-14,8.74 8.74,3.55271368e-14 19.54,3.55271368e-14 C30.32,3.55271368e-14 39.06,8.74 39.06,19.54 Z" id="path4757"></path>
                                </g>
                            </g>
                            <g id="id15-2" transform="translate(65.030000, 44.750000)" fill="#FFFFFF">
                                <path d="M39.06,19.54 C39.06,30.32 30.32,39.06 19.54,39.06 C8.74,39.06 -1.45661261e-13,30.32 -1.45661261e-13,19.54 C-1.45661261e-13,8.74 8.74,5.68434189e-14 19.54,5.68434189e-14 C30.32,5.68434189e-14 39.06,8.74 39.06,19.54 Z" id="path4762"></path>
                            </g>
                            <g id="g4764" transform="translate(65.030000, 44.750000)" stroke="#000000" stroke-width="2.21">
                                <g id="id16-3">
                                    <path d="M39.06,19.54 C39.06,30.32 30.32,39.06 19.54,39.06 C8.74,39.06 -1.45661261e-13,30.32 -1.45661261e-13,19.54 C-1.45661261e-13,8.74 8.74,5.68434189e-14 19.54,5.68434189e-14 C30.32,5.68434189e-14 39.06,8.74 39.06,19.54 Z" id="path4767"></path>
                                </g>
                            </g>
                            <g id="id17-7" transform="translate(78.440000, 55.950000)" fill="#000000">
                                <path d="M12.25,6.13 C12.25,9.51 9.51,12.25 6.13,12.25 C2.74,12.25 -8.8817842e-16,9.51 -8.8817842e-16,6.13 C-8.8817842e-16,2.74 2.74,2.7533531e-14 6.13,2.7533531e-14 C9.51,2.7533531e-14 12.25,2.74 12.25,6.13 Z" id="path4772"></path>
                            </g>
                            <g id="id18-5" transform="translate(65.030000, 42.540000)" fill="#A05A2C">
                                <path d="M39.06,19.54 C39.06,19.54 31.67,15.1 25.55,15.3 C11.74,15.3 -1.45661261e-13,19.54 -1.45661261e-13,19.54 C-1.45661261e-13,8.74 8.74,3.55271368e-14 19.54,3.55271368e-14 C30.32,3.55271368e-14 39.06,8.74 39.06,19.54 Z" id="path4777"></path>
                            </g>
                            <g id="g4779" transform="translate(65.030000, 42.540000)" stroke="#000000" stroke-width="2.21">
                                <g id="id19-9">
                                    <path d="M39.06,19.54 C39.06,19.54 31.67,15.1 25.55,15.3 C11.74,15.3 -1.45661261e-13,19.54 -1.45661261e-13,19.54 C-1.45661261e-13,8.74 8.74,3.55271368e-14 19.54,3.55271368e-14 C30.32,3.55271368e-14 39.06,8.74 39.06,19.54 Z" id="path4782"></path>
                                </g>
                            </g>
                            <g id="id20-2" transform="translate(27.720000, 77.900000)" fill="#D38D5F">
                                <path d="M153.83,56.42 C153.83,56.42 102.56,50.9 76.91,50.9 C51.27,50.9 -2.84217094e-14,56.42 -2.84217094e-14,56.42 C-2.84217094e-14,25.26 34.43,3.19744231e-14 76.91,3.19744231e-14 C119.4,3.19744231e-14 153.83,25.25 153.83,56.42 Z" id="path4787"></path>
                            </g>
                            <g id="id21-2" transform="translate(36.000000, 31.020000)" fill="#333333">
                                <polygon id="path4792" points="-1.19904087e-13 4.61852778e-14 11.01 10.3 5.51 14.98 5.51 44.01 4.4 43.07"></polygon>
                            </g>
                            <g id="g4794" transform="translate(36.000000, 31.020000)" stroke="#000000" stroke-linejoin="round" stroke-width="0.5">
                                <g id="id22-8">
                                    <polygon id="path4797" points="-1.19904087e-13 4.61852778e-14 11.01 10.3 5.51 14.98 5.51 44.01 4.4 43.07"></polygon>
                                </g>
                            </g>
                            <g id="id23-9" transform="translate(41.050000, 39.440000)">
                                <path d="M7.25,3.81 C3.69,4.09 0.14,7.96 0.14,11.55 L0.14,40.22 C0.14,43.8 3.69,47.11 7.25,46.82 L52.84,43.17 C56.4,42.89 59.96,39.01 59.96,35.43 L59.96,6.75 C59.96,3.17 56.4,-0.13 52.84,0.16 L7.25,3.81 Z" id="path4802" stroke-opacity="0.878" stroke="#FFFFFF" stroke-width="0.5" fill-opacity="0.878" fill="#000000"></path>
                                <g id="g4822-Clipped">
                                    <mask id="mask-6" fill="white">
                                        <use xlink:href="#path-5"></use>
                                    </mask>
                                    <g id="path4820"></g>
                                    <g id="g4822" mask="url(#mask-6)" stroke="#FFFFFF" stroke-linejoin="round" stroke-width="0.5">
                                        <g transform="translate(0.140000, 0.140000)" id="path4824">
                                            <path d="M7.11,3.67 C3.55,3.95 -3.19744231e-14,7.82 -3.19744231e-14,11.41 L-3.19744231e-14,40.08 C-3.19744231e-14,43.66 3.55,46.97 7.11,46.68 L52.7,43.03 C56.26,42.75 59.82,38.87 59.82,35.29 L59.82,6.61 C59.82,3.03 56.26,-0.27 52.7,0.02 L7.11,3.67 Z"></path>
                                        </g>
                                    </g>
                                </g>
                            </g>
                            <g id="g4826" transform="translate(41.190000, 39.580000)" stroke="#000000" stroke-linejoin="round" stroke-width="5">
                                <g id="id24-7">
                                    <path d="M7.11,3.67 C3.55,3.95 -3.55271368e-14,7.82 -3.55271368e-14,11.41 L-3.55271368e-14,40.08 C-3.55271368e-14,43.66 3.55,46.97 7.11,46.68 L52.7,43.03 C56.26,42.75 59.82,38.87 59.82,35.29 L59.82,6.61 C59.82,3.03 56.26,-0.27 52.7,0.02 L7.11,3.67 Z" id="path4829"></path>
                                </g>
                            </g>
                            <g id="g4831" transform="translate(66.000000, 43.020000)" fill="#E6E6FF" fill-opacity="0.25100002" stroke="#FFFFFF" stroke-opacity="0.25100002" stroke-width="0.5">
                                <g id="id25-3">
                                    <polygon id="path4834" points="10.01 2.13162821e-14 1 18.47 10.01 19.51 -5.32907052e-15 39.01 10.01 39.01 20.01 15.39 12.01 14.37 18.01 1.03"></polygon>
                                </g>
                            </g>
                            <g id="id26-6" transform="translate(68.050000, 74.950000)" fill="#D38D5F">
                                <path d="M14.94,25.46 C5.46,23.65 -1.15,16.58 0.17,9.67 C1.49,2.75 10.24,-1.38 19.72,0.43 C29.19,2.24 35.82,9.32 34.5,16.23 C33.18,23.14 24.41,27.27 14.94,25.46 Z" id="path4839"></path>
                            </g>
                            <g id="g4841" transform="translate(68.050000, 74.950000)" stroke="#000000" stroke-width="0.5">
                                <g id="id27-1">
                                    <path d="M14.94,25.46 C5.46,23.65 -1.15,16.58 0.17,9.67 C1.49,2.75 10.24,-1.38 19.72,0.43 C29.19,2.24 35.82,9.32 34.5,16.23 C33.18,23.14 24.41,27.27 14.94,25.46 Z" id="path4844"></path>
                                </g>
                            </g>
                            <g id="id28-2" transform="translate(161.000000, 31.020000)" fill="#333333">
                                <polygon id="path4849" points="12.27 4.61852778e-14 -1.24344979e-13 10.24 6.14 14.89 6.14 43.76 7.37 42.83"></polygon>
                            </g>
                            <g id="g4851" transform="translate(161.000000, 31.020000)" stroke="#000000" stroke-linejoin="round" stroke-width="0.5">
                                <g id="id29-9">
                                    <polygon id="path4854" points="12.27 4.61852778e-14 -1.24344979e-13 10.24 6.14 14.89 6.14 43.76 7.37 42.83"></polygon>
                                </g>
                            </g>
                            <g id="g4856" transform="translate(108.270000, 39.910000)" fill="#000000" fill-opacity="0.878" stroke="#FFFFFF" stroke-opacity="0.878" stroke-width="0.5">
                                <g id="id30-3">
                                    <path d="M52.65,4.26 C56.21,4.59 59.75,8.5 59.75,12.08 L59.75,40.78 C59.75,44.36 56.21,47.62 52.65,47.29 L7.1,43.06 C3.55,42.73 -1.17239551e-13,38.81 -1.17239551e-13,35.23 L-1.17239551e-13,6.53 C-1.17239551e-13,2.95 3.55,-0.3 7.1,0.03 L52.65,4.26 Z" id="path4859"></path>
                                </g>
                            </g>
                            <g id="g4861" transform="translate(108.270000, 39.910000)" stroke="#000000" stroke-linejoin="round" stroke-width="5">
                                <g id="id31-1">
                                    <path d="M52.65,4.26 C56.21,4.59 59.75,8.5 59.75,12.08 L59.75,40.78 C59.75,44.36 56.21,47.62 52.65,47.29 L7.1,43.06 C3.55,42.73 -1.17239551e-13,38.81 -1.17239551e-13,35.23 L-1.17239551e-13,6.53 C-1.17239551e-13,2.95 3.55,-0.3 7.1,0.03 L52.65,4.26 Z" id="path4864"></path>
                                </g>
                            </g>
                            <g id="g4866" transform="translate(129.000000, 44.020000)" fill="#E6E6FF" fill-opacity="0.25100002" stroke="#FFFFFF" stroke-opacity="0.25100002" stroke-width="0.5">
                                <g id="id32">
                                    <polygon id="path4869" points="10.01 2.13162821e-14 1 18 10.01 19 -5.32907052e-15 38.01 10.01 38.01 20.01 15 12.01 14 18.01 1"></polygon>
                                </g>
                            </g>
                            <g id="id33" transform="translate(103.530000, 74.950000)" fill="#D38D5F">
                                <path d="M19.72,25.46 C29.19,23.65 35.82,16.58 34.5,9.67 C33.18,2.75 24.41,-1.38 14.94,0.43 C5.46,2.24 -1.15,9.32 0.17,16.23 C1.49,23.14 10.24,27.27 19.72,25.46 Z" id="path4874"></path>
                            </g>
                            <g id="g4876" transform="translate(103.530000, 74.950000)" stroke="#000000" stroke-width="0.5">
                                <g id="id34">
                                    <path d="M19.72,25.46 C29.19,23.65 35.82,16.58 34.5,9.67 C33.18,2.75 24.41,-1.38 14.94,0.43 C5.46,2.24 -1.15,9.32 0.17,16.23 C1.49,23.14 10.24,27.27 19.72,25.46 Z" id="path4879"></path>
                                </g>
                            </g>
                            <g id="id35" transform="translate(79.460000, 83.330000)" fill="#28170B">
                                <path d="M6.36,10.84 C2.33,10.07 -0.49,7.07 0.08,4.11 C0.64,1.17 4.36,-0.59 8.4,0.19 C12.44,0.96 15.25,3.97 14.69,6.92 C14.13,9.86 10.39,11.62 6.36,10.84 Z" id="path4884"></path>
                            </g>
                            <g id="id36" transform="translate(111.480000, 83.330000)" fill="#28170B">
                                <path d="M8.4,10.84 C12.44,10.07 15.25,7.07 14.69,4.11 C14.13,1.17 10.39,-0.59 6.36,0.19 C2.33,0.96 -0.49,3.97 0.08,6.92 C0.64,9.86 4.36,11.62 8.4,10.84 Z" id="path4889"></path>
                            </g>
                            <g id="id37" transform="translate(27.720000, 133.110000)" fill="#D38D5F">
                                <path d="M153.83,5.52 C153.83,5.52 102.56,2.13162821e-14 76.91,2.13162821e-14 C51.27,2.13162821e-14 -2.84217094e-14,5.52 -2.84217094e-14,5.52 C-2.84217094e-14,36.68 34.43,61.94 76.91,61.94 C119.4,61.94 153.83,36.69 153.83,5.52 Z" id="path4894"></path>
                            </g>
                            <g id="g4896" transform="translate(36.000000, 31.020000)" stroke="#000000" stroke-linejoin="round" stroke-width="0.5">
                                <g id="id38">
                                    <line x1="-1.09134923e-13" y1="4.20219415e-14" x2="0.24" y2="0.47" id="path4899"></line>
                                </g>
                            </g>
                            <g id="g4901" transform="translate(36.800000, 32.610000)" stroke="#000000" stroke-linejoin="round" stroke-width="0.5">
                                <g id="id39">
                                    <line x1="-1.04596887e-13" y1="4.20219415e-14" x2="0.23" y2="0.47" id="path4904"></line>
                                </g>
                            </g>
                            <g id="g4906" transform="translate(37.590000, 34.200000)" stroke="#000000" stroke-linejoin="round" stroke-width="0.5">
                                <g id="id40">
                                    <line x1="-1.82076576e-13" y1="3.84137167e-14" x2="1.15" y2="2.29" id="path4909"></line>
                                </g>
                            </g>
                            <g id="g4911" transform="translate(39.300000, 37.610000)" stroke="#000000" stroke-linejoin="round" stroke-width="0.5">
                                <g id="id41">
                                    <line x1="-6.37268016e-14" y1="4.28546088e-14" x2="1.14" y2="2.28" id="path4914"></line>
                                </g>
                            </g>
                            <g id="g4916" transform="translate(41.000000, 41.020000)" stroke="#000000" stroke-linejoin="round" stroke-width="0.5">
                                <g id="id42">
                                    <line x1="-1.18238752e-13" y1="2.37587727e-14" x2="1.01" y2="2.01" id="path4919"></line>
                                </g>
                            </g>
                            <g id="g4921" transform="translate(172.780000, 31.020000)" stroke="#000000" stroke-linejoin="round" stroke-width="0.5">
                                <g id="id43">
                                    <line x1="0.23" y1="4.20219415e-14" x2="-1.04596887e-13" y2="0.47" id="path4924"></line>
                                </g>
                            </g>
                            <g id="g4926" transform="translate(171.990000, 32.620000)" stroke="#000000" stroke-linejoin="round" stroke-width="0.5">
                                <g id="id44">
                                    <line x1="0.24" y1="4.20219415e-14" x2="-1.09134923e-13" y2="0.47" id="path4929"></line>
                                </g>
                            </g>
                            <g id="g4931" transform="translate(170.320000, 34.220000)" stroke="#000000" stroke-linejoin="round" stroke-width="0.5">
                                <g id="id45">
                                    <line x1="1.13" y1="3.84137167e-14" x2="-5.91748872e-14" y2="2.29" id="path4934"></line>
                                </g>
                            </g>
                            <g id="g4936" transform="translate(168.650000, 37.640000)" stroke="#000000" stroke-linejoin="round" stroke-width="0.5">
                                <g id="id46">
                                    <line x1="1.13" y1="3.84137167e-14" x2="-1.72861725e-13" y2="2.29" id="path4939"></line>
                                </g>
                            </g>
                            <g id="g4941" transform="translate(167.260000, 41.070000)" stroke="#000000" stroke-linejoin="round" stroke-width="0.5">
                                <g id="id47">
                                    <line x1="0.84" y1="7.48290319e-14" x2="-4.10227408e-14" y2="1.71" id="path4944"></line>
                                </g>
                            </g>
                        </g>
                    </g>
                </g>
            </g>
            <g id="id1-2-Clipped" transform="translate(247.746050, 0.909177)">
                <mask id="mask-8" fill="white">
                    <use xlink:href="#path-7"></use>
                </mask>
                <g id="rect5923"></g>
                <g id="id1-2" mask="url(#mask-8)">
                    <g transform="translate(19.990000, 27.990000)" id="g5970">
                        <g id="id3-0" transform="translate(0.000000, 30.590000)" fill="#552200">
                            <path d="M59.24,27.1 C66.35,46.88 59.49,67.46 43.91,73.06 C28.33,78.67 9.93,67.17 2.82,47.39 C-4.3,27.61 2.57,7.03 18.15,1.43 C33.73,-4.18 52.12,7.32 59.24,27.1 Z" id="path5975"></path>
                        </g>
                        <g id="id4-61" transform="translate(12.350000, 48.380000)" fill="#D38D5F">
                            <path d="M36.19,16.55 C40.53,28.64 36.34,41.21 26.82,44.63 C17.3,48.06 6.06,41.03 1.72,28.95 C-2.63,16.86 1.57,4.29 11.08,0.87 C20.6,-2.55 31.84,4.47 36.19,16.55 Z" id="path5980"></path>
                        </g>
                        <g id="id5-5" transform="translate(147.970000, 30.590000)" fill="#552200">
                            <path d="M2.82,27.1 C-4.3,46.88 2.57,67.46 18.15,73.06 C33.73,78.67 52.12,67.17 59.24,47.39 C66.35,27.61 59.49,7.03 43.91,1.43 C28.33,-4.18 9.93,7.32 2.82,27.1 Z" id="path5985"></path>
                        </g>
                        <g id="id6-5" transform="translate(159.770000, 48.380000)" fill="#D38D5F">
                            <path d="M1.72,16.55 C-2.63,28.64 1.57,41.21 11.08,44.63 C20.6,48.06 31.84,41.03 36.19,28.95 C40.53,16.86 36.34,4.29 26.82,0.87 C17.3,-2.55 6.06,4.47 1.72,16.55 Z" id="path5990"></path>
                        </g>
                        <g id="id7-4" transform="translate(39.560000, 0.000000)">
                            <path d="M0.01,40.79 C1.06,93.34 15.42,113.99 33.54,113.99 L97.36,113.99 C115.49,113.99 126.49,115.39 130.12,48.68 C133.75,-18.04 -1.04,-11.76 0.01,40.79 Z" id="path5995" fill="#552200"></path>
                            <path d="M0.01,40.79 C1.06,93.34 15.42,113.99 33.54,113.99 L97.36,113.99 C115.49,113.99 126.49,115.39 130.12,48.68 C133.75,-18.04 -1.04,-11.76 0.01,40.79 Z" id="path5997" stroke="#552200" stroke-width="9.11"></path>
                        </g>
                        <g id="id8-7" transform="translate(46.520000, 16.350000)" fill="#D38D5F">
                            <path d="M26.5,0.99 C12.48,4.75 0,15.73 0,33.9 C0,52.07 8.33,79.59 26.5,79.59 L90.47,79.59 C108.64,79.59 116.98,52.07 116.98,33.9 C116.98,15.73 107.59,5.58 90.47,0.99 C73.35,-3.6 62.03,9.26 58.49,9.38 C54.94,9.5 40.52,-2.76 26.5,0.99 Z" id="path6002"></path>
                        </g>
                        <g id="id9-6" transform="translate(105.190000, 43.090000)">
                            <path d="M39.05,19.53 C39.05,30.31 30.31,39.05 19.53,39.05 C8.74,39.05 -2.48689958e-14,30.31 -2.48689958e-14,19.53 C-2.48689958e-14,8.74 8.74,3.55271368e-15 19.53,3.55271368e-15 C30.31,3.55271368e-15 39.05,8.74 39.05,19.53 Z" id="path6007" fill="#FFFFFF"></path>
                            <path d="M39.05,19.53 C39.05,30.31 30.31,39.05 19.53,39.05 C8.74,39.05 -2.48689958e-14,30.31 -2.48689958e-14,19.53 C-2.48689958e-14,8.74 8.74,3.55271368e-15 19.53,3.55271368e-15 C30.31,3.55271368e-15 39.05,8.74 39.05,19.53 Z" id="path6009" stroke="#000000" stroke-width="2.21"></path>
                        </g>
                        <g id="id10-5" transform="translate(118.600000, 54.840000)" fill="#000000">
                            <path d="M12.24,6.12 C12.24,9.5 9.5,12.24 6.12,12.24 C2.74,12.24 1.77635684e-15,9.5 1.77635684e-15,6.12 C1.77635684e-15,2.74 2.74,3.55271368e-15 6.12,3.55271368e-15 C9.5,3.55271368e-15 12.24,2.74 12.24,6.12 Z" id="path6014"></path>
                        </g>
                        <g id="id11-6" transform="translate(105.190000, 41.430000)">
                            <path d="M39.05,19.53 C39.05,19.53 21.4,16.47 13.71,16.77 C6.02,17.07 -2.48689958e-14,19.53 -2.48689958e-14,19.53 C-2.48689958e-14,8.74 8.74,1.24344979e-14 19.53,1.24344979e-14 C30.31,1.24344979e-14 39.05,8.74 39.05,19.53 Z" id="path6019" fill="#A05A2C"></path>
                            <path d="M39.05,19.53 C39.05,19.53 21.4,16.47 13.71,16.77 C6.02,17.07 -2.48689958e-14,19.53 -2.48689958e-14,19.53 C-2.48689958e-14,8.74 8.74,1.24344979e-14 19.53,1.24344979e-14 C30.31,1.24344979e-14 39.05,8.74 39.05,19.53 Z" id="path6021" stroke="#000000" stroke-width="2.21"></path>
                        </g>
                        <g id="id12-93" transform="translate(65.040000, 44.750000)">
                            <path d="M39.05,19.53 C39.05,30.31 30.31,39.05 19.53,39.05 C8.74,39.05 -2.48689958e-14,30.31 -2.48689958e-14,19.53 C-2.48689958e-14,8.74 8.74,3.19744231e-14 19.53,3.19744231e-14 C30.31,3.19744231e-14 39.05,8.74 39.05,19.53 Z" id="path6026" fill="#FFFFFF"></path>
                            <path d="M39.05,19.53 C39.05,30.31 30.31,39.05 19.53,39.05 C8.74,39.05 -2.48689958e-14,30.31 -2.48689958e-14,19.53 C-2.48689958e-14,8.74 8.74,3.19744231e-14 19.53,3.19744231e-14 C30.31,3.19744231e-14 39.05,8.74 39.05,19.53 Z" id="path6028" stroke="#000000" stroke-width="2.21"></path>
                        </g>
                        <g id="id13-7" transform="translate(78.450000, 55.950000)" fill="#000000">
                            <path d="M12.24,6.12 C12.24,9.5 9.5,12.24 6.12,12.24 C2.74,12.24 1.77635684e-15,9.5 1.77635684e-15,6.12 C1.77635684e-15,2.74 2.74,3.19744231e-14 6.12,3.19744231e-14 C9.5,3.19744231e-14 12.24,2.74 12.24,6.12 Z" id="path6033"></path>
                        </g>
                        <g id="id14-4" transform="translate(65.040000, 42.540000)">
                            <path d="M39.05,19.53 C39.05,19.53 31.66,15.09 25.54,15.29 C11.74,15.29 -2.48689958e-14,19.53 -2.48689958e-14,19.53 C-2.48689958e-14,8.74 8.74,-1.59872116e-14 19.53,-1.59872116e-14 C30.31,-1.59872116e-14 39.05,8.74 39.05,19.53 Z" id="path6038" fill="#A05A2C"></path>
                            <path d="M39.05,19.53 C39.05,19.53 31.66,15.09 25.54,15.29 C11.74,15.29 -2.48689958e-14,19.53 -2.48689958e-14,19.53 C-2.48689958e-14,8.74 8.74,-1.59872116e-14 19.53,-1.59872116e-14 C30.31,-1.59872116e-14 39.05,8.74 39.05,19.53 Z" id="path6040" stroke="#000000" stroke-width="2.21"></path>
                        </g>
                        <g id="id15-5" transform="translate(27.730000, 77.900000)" fill="#D38D5F">
                            <path d="M153.82,56.41 C153.82,56.41 102.55,50.89 76.91,50.89 C51.27,50.89 5.68434189e-14,56.41 5.68434189e-14,56.41 C5.68434189e-14,25.26 34.43,3.19744231e-14 76.91,3.19744231e-14 C119.39,3.19744231e-14 153.82,25.25 153.82,56.41 Z" id="path6045"></path>
                        </g>
                        <g id="id16-2" transform="translate(68.050000, 74.930000)">
                            <path d="M14.94,25.45 C5.46,23.64 -1.15,16.57 0.17,9.66 C1.49,2.75 10.24,-1.38 19.72,0.43 C29.19,2.24 35.81,9.31 34.49,16.22 C33.17,23.13 24.41,27.26 14.94,25.45 Z" id="path6050" fill="#D38D5F"></path>
                            <path d="M14.94,25.45 C5.46,23.64 -1.15,16.57 0.17,9.66 C1.49,2.75 10.24,-1.38 19.72,0.43 C29.19,2.24 35.81,9.31 34.49,16.22 C33.17,23.13 24.41,27.26 14.94,25.45 Z" id="path6052" stroke="#000000" stroke-width="0.5"></path>
                        </g>
                        <g id="id17-5" transform="translate(103.530000, 74.930000)">
                            <path d="M19.72,25.45 C29.19,23.64 35.81,16.57 34.49,9.66 C33.17,2.75 24.41,-1.38 14.94,0.43 C5.46,2.24 -1.15,9.31 0.17,16.22 C1.49,23.13 10.24,27.26 19.72,25.45 Z" id="path6057" fill="#D38D5F"></path>
                            <path d="M19.72,25.45 C29.19,23.64 35.81,16.57 34.49,9.66 C33.17,2.75 24.41,-1.38 14.94,0.43 C5.46,2.24 -1.15,9.31 0.17,16.22 C1.49,23.13 10.24,27.26 19.72,25.45 Z" id="path6059" stroke="#000000" stroke-width="0.5"></path>
                        </g>
                        <g id="id18-4" transform="translate(79.470000, 83.330000)" fill="#28170B">
                            <path d="M6.36,10.83 C2.33,10.06 -0.49,7.06 0.08,4.11 C0.64,1.17 4.36,-0.59 8.4,0.19 C12.43,0.96 15.24,3.97 14.68,6.91 C14.12,9.85 10.39,11.61 6.36,10.83 Z" id="path6064"></path>
                        </g>
                        <g id="id19-7" transform="translate(111.490000, 83.330000)" fill="#28170B">
                            <path d="M8.4,10.83 C12.43,10.06 15.24,7.06 14.68,4.11 C14.12,1.17 10.39,-0.59 6.36,0.19 C2.33,0.96 -0.49,3.97 0.08,6.91 C0.64,9.85 4.36,11.61 8.4,10.83 Z" id="path6069"></path>
                        </g>
                        <g id="id20-4" transform="translate(27.730000, 133.110000)" fill="#D38D5F">
                            <path d="M153.82,5.52 C153.82,5.52 102.55,2.48689958e-14 76.91,2.48689958e-14 C51.27,2.48689958e-14 5.68434189e-14,5.52 5.68434189e-14,5.52 C5.68434189e-14,36.67 34.43,61.93 76.91,61.93 C119.39,61.93 153.82,36.68 153.82,5.52 Z" id="path6074"></path>
                        </g>
                        <g id="g6076" transform="translate(23.010000, 70.020000)" fill="#59E7CB">
                            <g id="id21-4" transform="translate(0.000000, 7.000000)">
                                <path d="M81.5,3.55271368e-14 C127.71,3.55271368e-14 163,26.2 163,60.5 C163,94.8 127.71,121 81.5,121 C35.29,121 -2.84217094e-14,94.8 -2.84217094e-14,60.5 C-2.84217094e-14,26.2 35.29,3.55271368e-14 81.5,3.55271368e-14 Z" id="path6081"></path>
                            </g>
                            <g id="id22-3" transform="translate(39.990000, 1.000000)">
                                <path d="M17.12,29.3 C6.26,27.22 -1.31,19.08 0.2,11.12 C1.71,3.16 11.74,-1.59 22.6,0.49 C33.44,2.57 41.02,10.72 39.51,18.67 C38,26.63 27.97,31.39 17.12,29.3 Z" id="path6086"></path>
                            </g>
                            <g id="id23-0" transform="translate(80.510000, 0.000000)">
                                <path d="M22.47,30.28 C33.26,28.13 40.8,19.72 39.29,11.49 C37.79,3.27 27.81,-1.65 17.03,0.51 C6.23,2.66 -1.3,11.08 0.2,19.3 C1.7,27.52 11.67,32.44 22.47,30.28 Z" id="path6091"></path>
                            </g>
                        </g>
                        <g id="g6093" transform="translate(112.010000, 137.020000)" stroke="#333333" stroke-linejoin="round">
                            <g id="id24-78">
                                <line x1="1.81243909e-14" y1="9" x2="0.46" y2="8.77" id="path6096"></line>
                                <line x1="1.59" y1="8.2" x2="2.05" y2="7.98" id="path6098"></line>
                                <line x1="3.18" y1="7.41" x2="5.46" y2="6.27" id="path6100"></line>
                                <line x1="6.59" y1="5.7" x2="8.86" y2="4.57" id="path6102"></line>
                                <line x1="10" y1="4" x2="12.27" y2="2.86" id="path6104"></line>
                                <line x1="13.41" y1="2.3" x2="13.86" y2="2.07" id="path6106"></line>
                                <line x1="15" y1="1.5" x2="15.46" y2="1.27" id="path6108"></line>
                                <line x1="16.59" y1="0.7" x2="18" y2="2.26485497e-14" id="path6110"></line>
                            </g>
                        </g>
                        <g id="g6112" transform="translate(105.000000, 136.110000)" stroke="#333333" stroke-linejoin="round">
                            <g id="id25-6">
                                <line x1="0.055" y1="9.91" x2="0.055" y2="9.4" id="path6115"></line>
                                <line x1="0.055" y1="8.13" x2="0.055" y2="7.62" id="path6117"></line>
                                <line x1="0.055" y1="6.35" x2="0.055" y2="3.81" id="path6119"></line>
                                <line x1="0.055" y1="2.54" x2="0.055" y2="9.99200722e-15" id="path6121"></line>
                            </g>
                        </g>
                        <g id="g6123" transform="translate(105.000000, 152.610000)" stroke="#333333" stroke-linejoin="round">
                            <g id="id26-8">
                                <line x1="0.055" y1="9.91" x2="0.055" y2="9.4" id="path6126"></line>
                                <line x1="0.055" y1="8.13" x2="0.055" y2="7.62" id="path6128"></line>
                                <line x1="0.055" y1="6.35" x2="0.055" y2="3.81" id="path6130"></line>
                                <line x1="0.055" y1="2.54" x2="0.055" y2="9.99200722e-15" id="path6132"></line>
                            </g>
                        </g>
                        <g id="g6134" transform="translate(80.010000, 136.520000)" stroke="#333333" stroke-linejoin="round">
                            <g id="id27-8">
                                <line x1="18" y1="9" x2="17.54" y2="8.77" id="path6137"></line>
                                <line x1="16.41" y1="8.2" x2="15.95" y2="7.98" id="path6139"></line>
                                <line x1="14.82" y1="7.41" x2="12.54" y2="6.27" id="path6141"></line>
                                <line x1="11.41" y1="5.7" x2="9.14" y2="4.57" id="path6143"></line>
                                <line x1="8" y1="4" x2="5.73" y2="2.86" id="path6145"></line>
                                <line x1="4.59" y1="2.3" x2="4.14" y2="2.07" id="path6147"></line>
                                <line x1="3" y1="1.5" x2="2.54" y2="1.27" id="path6149"></line>
                                <line x1="1.41" y1="0.7" x2="4.06341627e-14" y2="2.26485497e-14" id="path6151"></line>
                            </g>
                        </g>
                        <g id="g6153" transform="translate(111.010000, 151.520000)" stroke="#333333" stroke-linejoin="round">
                            <g id="id28-4">
                                <line x1="1.81243909e-14" y1="9.06219544e-15" x2="0.46" y2="0.23" id="path6156"></line>
                                <line x1="1.59" y1="0.8" x2="2.05" y2="1.02" id="path6158"></line>
                                <line x1="3.18" y1="1.59" x2="5.46" y2="2.73" id="path6160"></line>
                                <line x1="6.59" y1="3.3" x2="8.86" y2="4.43" id="path6162"></line>
                                <line x1="10" y1="5" x2="12.27" y2="6.14" id="path6164"></line>
                                <line x1="13.41" y1="6.7" x2="13.86" y2="6.93" id="path6166"></line>
                                <line x1="15" y1="7.5" x2="15.46" y2="7.73" id="path6168"></line>
                                <line x1="16.59" y1="8.3" x2="18" y2="9" id="path6170"></line>
                            </g>
                        </g>
                        <g id="g6172" transform="translate(81.010000, 151.020000)" stroke="#333333" stroke-linejoin="round">
                            <g id="id29-3">
                                <line x1="18" y1="9.06219544e-15" x2="17.54" y2="0.23" id="path6175"></line>
                                <line x1="16.41" y1="0.8" x2="15.95" y2="1.02" id="path6177"></line>
                                <line x1="14.82" y1="1.59" x2="12.54" y2="2.73" id="path6179"></line>
                                <line x1="11.41" y1="3.3" x2="9.14" y2="4.43" id="path6181"></line>
                                <line x1="8" y1="5" x2="5.73" y2="6.14" id="path6183"></line>
                                <line x1="4.59" y1="6.7" x2="4.14" y2="6.93" id="path6185"></line>
                                <line x1="3" y1="7.5" x2="2.54" y2="7.73" id="path6187"></line>
                                <line x1="1.41" y1="8.3" x2="4.06341627e-14" y2="9" id="path6189"></line>
                            </g>
                        </g>
                        <g id="id30-1" transform="translate(162.860000, 104.020000)" fill="#FFFF00">
                            <path d="M23.74,-7.10542736e-15 C33.14,-7.10542736e-15 37.71,17.32 34.29,40 C30.87,62.68 21.08,80 11.68,80 C2.28,80 -2.28,62.68 1.14,40 C4.56,17.32 14.34,-7.10542736e-15 23.74,-7.10542736e-15 Z" id="path6194"></path>
                        </g>
                        <g id="id31-4" transform="translate(148.850000, 100.020000)" fill="#FFFF00">
                            <path d="M23.74,-7.10542736e-15 C33.14,-7.10542736e-15 37.71,17.32 34.29,40 C30.87,62.68 21.08,80 11.68,80 C2.28,80 -2.28,62.68 1.14,40 C4.56,17.32 14.34,-7.10542736e-15 23.74,-7.10542736e-15 Z" id="path6199"></path>
                        </g>
                        <g id="id32-9" transform="translate(157.010000, 100.020000)" fill="#FFFF00">
                            <polygon id="path6204" points="15.5 -7.10542736e-15 31 4 16.61 84 -5.32907052e-15 78.99"></polygon>
                        </g>
                        <g id="g6206" transform="translate(168.740000, 109.020000)" fill="#99CCFF" fill-opacity="0.74900004" stroke="#FFFFFF" stroke-opacity="0.74900004" stroke-width="0.5">
                            <g id="id33-2">
                                <path d="M19.27,2.13162821e-14 C26.64,2.13162821e-14 30.02,14.94 27.07,34.5 C24.12,54.06 16.24,69 8.87,69 C1.5,69 -1.88,54.06 1.07,34.5 C4.02,14.94 11.9,2.13162821e-14 19.27,2.13162821e-14 Z" id="path6209"></path>
                            </g>
                        </g>
                        <g id="g6211" transform="translate(41.060000, 38.930000)">
                            <g id="g6234-Clipped">
                                <mask id="mask-10" fill="white">
                                    <use xlink:href="#path-9"></use>
                                </mask>
                                <g id="path4820"></g>
                                <g id="g6234" mask="url(#mask-10)" stroke="#333333" stroke-linecap="round" stroke-linejoin="round">
                                    <g transform="translate(137.950000, 128.090000)" id="path6236">
                                        <line x1="-8.8817842e-16" y1="8" x2="8" y2="-1.77635684e-15"></line>
                                    </g>
                                </g>
                            </g>
                            <g id="g6259-Clipped" transform="translate(128.450000, 97.590000)">
                                <mask id="mask-12" fill="white">
                                    <use xlink:href="#path-11"></use>
                                </mask>
                                <g id="path6257"></g>
                                <g id="g6259" mask="url(#mask-12)" stroke="#333333" stroke-linecap="round" stroke-linejoin="round">
                                    <g transform="translate(0.500000, 0.500000)" id="path6261">
                                        <line x1="-5.32907052e-15" y1="25" x2="25" y2="-5.32907052e-15"></line>
                                    </g>
                                </g>
                            </g>
                            <g id="g6284-Clipped" transform="translate(128.450000, 91.590000)">
                                <mask id="mask-14" fill="white">
                                    <use xlink:href="#path-13"></use>
                                </mask>
                                <g id="path6282"></g>
                                <g id="g6284" mask="url(#mask-14)" stroke="#333333" stroke-linecap="round" stroke-linejoin="round">
                                    <g transform="translate(0.500000, 0.500000)" id="path6286">
                                        <line x1="-5.32907052e-15" y1="24" x2="25" y2="2.30926389e-14"></line>
                                    </g>
                                </g>
                            </g>
                            <g id="g6309-Clipped" transform="translate(129.450000, 84.590000)">
                                <mask id="mask-16" fill="white">
                                    <use xlink:href="#path-15"></use>
                                </mask>
                                <g id="path6307"></g>
                                <g id="g6309" mask="url(#mask-16)" stroke="#333333" stroke-linecap="round" stroke-linejoin="round">
                                    <g transform="translate(0.500000, 0.500000)" id="path6311">
                                        <line x1="-5.32907052e-15" y1="23" x2="23" y2="2.30926389e-14"></line>
                                    </g>
                                </g>
                            </g>
                            <g id="g6334-Clipped" transform="translate(130.450000, 77.590000)">
                                <mask id="mask-18" fill="white">
                                    <use xlink:href="#path-17"></use>
                                </mask>
                                <g id="path6332"></g>
                                <g id="g6334" mask="url(#mask-18)" stroke="#333333" stroke-linecap="round" stroke-linejoin="round">
                                    <g transform="translate(0.500000, 0.500000)" id="path6336">
                                        <line x1="-1.77635684e-15" y1="21" x2="21" y2="-1.77635684e-15"></line>
                                    </g>
                                </g>
                            </g>
                            <g id="g6359-Clipped" transform="translate(133.450000, 73.590000)">
                                <mask id="mask-20" fill="white">
                                    <use xlink:href="#path-19"></use>
                                </mask>
                                <g id="path6357"></g>
                                <g id="g6359" mask="url(#mask-20)" stroke="#333333" stroke-linecap="round" stroke-linejoin="round">
                                    <g transform="translate(0.500000, 0.500000)" id="path6361">
                                        <line x1="-2.66453526e-15" y1="15" x2="15" y2="-2.66453526e-15"></line>
                                    </g>
                                </g>
                            </g>
                            <g id="g6384-Clipped" transform="translate(138.450000, 73.590000)">
                                <mask id="mask-22" fill="white">
                                    <use xlink:href="#path-21"></use>
                                </mask>
                                <g id="path6382"></g>
                                <g id="g6384" mask="url(#mask-22)" stroke="#333333" stroke-linecap="round" stroke-linejoin="round">
                                    <g transform="translate(0.500000, 0.500000)" id="path6386">
                                        <line x1="-8.8817842e-16" y1="4" x2="4" y2="-4.4408921e-16"></line>
                                    </g>
                                </g>
                            </g>
                            <g id="g6409-Clipped" transform="translate(131.450000, 114.590000)">
                                <mask id="mask-24" fill="white">
                                    <use xlink:href="#path-23"></use>
                                </mask>
                                <g id="path6407"></g>
                                <g id="g6409" mask="url(#mask-24)" stroke="#333333" stroke-linecap="round" stroke-linejoin="round">
                                    <g transform="translate(0.500000, 0.500000)" id="path6411">
                                        <line x1="-3.55271368e-15" y1="19" x2="19" y2="-1.77635684e-15"></line>
                                    </g>
                                </g>
                            </g>
                            <g id="g6434-Clipped" transform="translate(129.450000, 105.590000)">
                                <mask id="mask-26" fill="white">
                                    <use xlink:href="#path-25"></use>
                                </mask>
                                <g id="path6432"></g>
                                <g id="g6434" mask="url(#mask-26)" stroke="#333333" stroke-linecap="round" stroke-linejoin="round">
                                    <g transform="translate(0.500000, 0.500000)" id="path6436">
                                        <line x1="-5.32907052e-15" y1="23" x2="23" y2="-5.32907052e-15"></line>
                                    </g>
                                </g>
                            </g>
                        </g>
                        <g id="id43-4" transform="translate(21.010000, 101.010000)" fill="#FFFF00">
                            <polygon id="path6441" points="15 7.10542736e-15 -5.32907052e-15 4 14.19 83.27 31 79"></polygon>
                        </g>
                        <g id="id44-8" transform="translate(12.540000, 104.280000)" fill="#FFFF00">
                            <path d="M11.68,2.13162821e-14 C21.08,2.13162821e-14 30.87,17.32 34.29,40 C37.71,62.68 33.14,80 23.74,80 C14.34,80 4.56,62.68 1.14,40 C-2.28,17.32 2.28,2.13162821e-14 11.68,2.13162821e-14 Z" id="path6446"></path>
                        </g>
                        <g id="id45-7" transform="translate(26.550000, 100.280000)" fill="#FFFF00">
                            <path d="M11.68,2.13162821e-14 C21.08,2.13162821e-14 30.87,17.32 34.29,40 C37.71,62.68 33.14,80 23.74,80 C14.34,80 4.56,62.68 1.14,40 C-2.28,17.32 2.28,2.13162821e-14 11.68,2.13162821e-14 Z" id="path6451"></path>
                        </g>
                        <g id="g6453" transform="translate(14.340000, 109.280000)" fill="#99CCFF" fill-opacity="0.74900004" stroke="#FFFFFF" stroke-opacity="0.74900004" stroke-width="0.5">
                            <g id="id46-1">
                                <path d="M8.87,2.13162821e-14 C16.24,2.13162821e-14 24.12,14.94 27.07,34.5 C30.02,54.06 26.64,69 19.27,69 C11.9,69 4.02,54.06 1.07,34.5 C-1.88,14.94 1.5,2.13162821e-14 8.87,2.13162821e-14 Z" id="path6456"></path>
                            </g>
                        </g>
                        <g id="g6458" transform="translate(15.310000, 112.780000)">
                            <g id="g6481-Clipped" transform="translate(8.000000, 54.000000)">
                                <mask id="mask-28" fill="white">
                                    <use xlink:href="#path-27"></use>
                                </mask>
                                <g id="path6479"></g>
                                <g id="g6481" mask="url(#mask-28)" stroke="#333333" stroke-linecap="round" stroke-linejoin="round">
                                    <g transform="translate(0.500000, 0.500000)" id="path6483">
                                        <line x1="8" y1="8" x2="-8.8817842e-16" y2="-8.8817842e-16"></line>
                                    </g>
                                </g>
                            </g>
                            <g id="g6506-Clipped" transform="translate(0.000000, 24.000000)">
                                <mask id="mask-30" fill="white">
                                    <use xlink:href="#path-29"></use>
                                </mask>
                                <g id="path6504"></g>
                                <g id="g6506" mask="url(#mask-30)" stroke="#333333" stroke-linecap="round" stroke-linejoin="round">
                                    <g transform="translate(0.500000, 0.500000)" id="path6508">
                                        <line x1="25" y1="25" x2="-5.32907052e-15" y2="-1.77635684e-15"></line>
                                    </g>
                                </g>
                            </g>
                            <g id="g6531-Clipped" transform="translate(0.000000, 18.000000)">
                                <mask id="mask-32" fill="white">
                                    <use xlink:href="#path-31"></use>
                                </mask>
                                <g id="path6529"></g>
                                <g id="g6531" mask="url(#mask-32)" stroke="#333333" stroke-linecap="round" stroke-linejoin="round">
                                    <g transform="translate(0.500000, 0.500000)" id="path6533">
                                        <line x1="25" y1="24" x2="-5.32907052e-15" y2="-1.77635684e-15"></line>
                                    </g>
                                </g>
                            </g>
                            <g id="g6556-Clipped" transform="translate(1.000000, 11.000000)">
                                <mask id="mask-34" fill="white">
                                    <use xlink:href="#path-33"></use>
                                </mask>
                                <g id="path6554"></g>
                                <g id="g6556" mask="url(#mask-34)" stroke="#333333" stroke-linecap="round" stroke-linejoin="round">
                                    <g transform="translate(0.500000, 0.500000)" id="path6558">
                                        <line x1="23" y1="23" x2="-5.32907052e-15" y2="-1.77635684e-15"></line>
                                    </g>
                                </g>
                            </g>
                            <g id="g6581-Clipped" transform="translate(2.000000, 4.000000)">
                                <mask id="mask-36" fill="white">
                                    <use xlink:href="#path-35"></use>
                                </mask>
                                <g id="path6579"></g>
                                <g id="g6581" mask="url(#mask-36)" stroke="#333333" stroke-linecap="round" stroke-linejoin="round">
                                    <g transform="translate(0.500000, 0.500000)" id="path6583">
                                        <line x1="21" y1="21" x2="-5.32907052e-15" y2="-1.77635684e-15"></line>
                                    </g>
                                </g>
                            </g>
                            <g id="g6606-Clipped" transform="translate(5.000000, 0.000000)">
                                <mask id="mask-38" fill="white">
                                    <use xlink:href="#path-37"></use>
                                </mask>
                                <g id="path6604"></g>
                                <g id="g6606" mask="url(#mask-38)" stroke="#333333" stroke-linecap="round" stroke-linejoin="round">
                                    <g transform="translate(0.500000, 0.500000)" id="path6608">
                                        <line x1="15" y1="15" x2="-3.55271368e-15" y2="-2.66453526e-15"></line>
                                    </g>
                                </g>
                            </g>
                            <g id="g6631-Clipped" transform="translate(11.000000, 0.000000)">
                                <mask id="mask-40" fill="white">
                                    <use xlink:href="#path-39"></use>
                                </mask>
                                <g id="path6629"></g>
                                <g id="g6631" mask="url(#mask-40)" stroke="#333333" stroke-linecap="round" stroke-linejoin="round">
                                    <g transform="translate(0.500000, 0.500000)" id="path6633">
                                        <line x1="4" y1="4" x2="-1.33226763e-15" y2="-4.4408921e-16"></line>
                                    </g>
                                </g>
                            </g>
                            <g id="g6656-Clipped" transform="translate(3.000000, 41.000000)">
                                <mask id="mask-42" fill="white">
                                    <use xlink:href="#path-41"></use>
                                </mask>
                                <g id="path6654"></g>
                                <g id="g6656" mask="url(#mask-42)" stroke="#333333" stroke-linecap="round" stroke-linejoin="round">
                                    <g transform="translate(0.500000, 0.500000)" id="path6658">
                                        <line x1="19" y1="19" x2="-5.32907052e-15" y2="-1.77635684e-15"></line>
                                    </g>
                                </g>
                            </g>
                            <g id="g6681-Clipped" transform="translate(1.000000, 32.000000)">
                                <mask id="mask-44" fill="white">
                                    <use xlink:href="#path-43"></use>
                                </mask>
                                <g id="path6679"></g>
                                <g id="g6681" mask="url(#mask-44)" stroke="#333333" stroke-linecap="round" stroke-linejoin="round">
                                    <g transform="translate(0.500000, 0.500000)" id="path6683">
                                        <line x1="23" y1="23" x2="-5.32907052e-15" y2="-1.77635684e-15"></line>
                                    </g>
                                </g>
                            </g>
                        </g>
                    </g>
                </g>
            </g>
        </g>
    </g>
</svg>